<!-- Generated by IcoMoon.io -->
<svg version="1.1" xmlns="http://www.w3.org/2000/svg" width="37" height="32" viewBox="0 0 37 32">
<title>education</title>
<path d="M32.347 5.207c-0.982 0.312-1.917 0.616-2.93 0.896 0.007-0.363-0.010-0.882 0-1.127-2.616-0.312-5.577-0.625-8.28-0.91-0.41-0.043-0.866-0.018-1.203-0.109-0.249-0.068-0.455-0.337-0.743-0.437-0.732-0.254-2.427-0.112-2.442 0.619-0.014 0.701 1.294 0.883 2.123 0.727 0.331-0.061 0.59-0.29 0.849-0.327 0.303-0.043 0.761 0.069 1.168 0.109 2.572 0.253 5.371 0.603 7.925 0.836 0 0.28 0 0.559 0 0.838-3.087 0.902-6.199 1.896-9.341 2.874-0.432 0.134-1.003 0.389-1.345 0.4-0.436 0.014-1.209-0.374-1.734-0.546-3.94-1.283-7.907-2.614-11.818-3.892 0-0.497 0-0.995 0-1.492 4.46-1.247 9.047-2.409 13.445-3.638 0.466-0.13 1.39 0.238 1.982 0.4 4.008 1.104 8.342 2.303 12.348 3.383l-0.005 1.396z"></path>
<path d="M29.346 6.606c0.024 0 0.047 0 0.071 0 0 0.86 0 1.721 0 2.582 0.608 0.205 0.997 1.224 0.46 1.782 0.975 0.306 0.483 2.122 0.601 3.31-0.783 0.342-1.985 0.323-2.796 0 0.117-1.177-0.368-2.973 0.602-3.273-0.485-0.575-0.186-1.698 0.531-1.783 0-0.812 0-1.625 0-2.437 0.156-0.083 0.371-0.104 0.531-0.181z"></path>
<path d="M26.198 8.249c-2.757 0.78-5.426 1.649-8.139 2.474-2.779-0.937-5.581-1.853-8.386-2.765-0.041 0.006-0.038 0.058-0.035 0.109-0.002 2.437 0.003 4.763 0 7.129 3.015 2.776 10.878 3.378 15.002 1.128 0.455-0.248 1.51-0.818 1.557-1.201v-6.874h-0z"></path>
<path d="M18.448 31.639c-5.779-2.789-11.626-5.508-17.444-8.258-1.242-1.249-1.325-4.668-0.283-6.222 2.585-1.235 5.172-2.467 7.784-3.673 0.032 0.711-0.137 1.542 0 2.218 0.094 0.461 1.408 1.104 1.84 1.347 1.967 1.103 4.728 1.855 7.572 1.855 4.251 0 7.423-1.108 9.412-3.165 0-0.17 0-0.34 0-0.509 1.305 0.538 3.292 0.264 4.317-0.328 0-0.873 0-1.746 0-2.619 1.71 0.946 3.386 1.927 5.095 2.873-6.265 3.176-12.582 6.297-18.859 9.459-5.403-2.315-10.76-4.677-16.134-7.021-0.997 1.002-0.99 3.819-0.142 4.984 5.156 2.41 16.439 7.82 16.63 7.821 0.218 0.002 0.841-0.405 1.168-0.582 5.564-3.021 11.273-6.027 16.842-9.022 0.136-0.042 0.044-0.318 0.071-0.474 0.189 0.158 0.439 0.252 0.601 0.437 0.028 0.283-0.054 0.454-0.035 0.728l-18.434 10.149z"></path>
<path d="M17.904 26.288l-15.908-7.239-0.041-0.304 15.907 7.239 0.041 0.304z"></path>
<path d="M18.033 27.827l-15.907-7.239-0.041-0.303 15.907 7.238 0.041 0.304z"></path>
<path d="M18.118 29.268l-15.907-7.238-0.041-0.304 15.907 7.238 0.041 0.304z"></path>
</svg>
