<!-- Generated by IcoMoon.io -->
<svg version="1.1" xmlns="http://www.w3.org/2000/svg" width="37" height="32" viewBox="0 0 37 32">
<title>finance</title>
<path d="M18.050 0c-3.771 0-7.182 0.583-9.621 1.511s-3.86 2.177-3.86 3.479 1.421 2.55 3.86 3.479c2.439 0.928 5.85 1.511 9.621 1.511 3.781 0 7.194-0.583 9.635-1.511s3.86-2.177 3.86-3.479c0-1.302-1.419-2.55-3.86-3.479s-5.854-1.511-9.635-1.511zM18.618 1.411c1.783 0 3.372 0.503 4.371 1.3 0.032 0.025 0.057 0.054 0.074 0.087s0.026 0.067 0.026 0.102-0.009 0.070-0.026 0.102c-0.017 0.032-0.042 0.062-0.074 0.087s-0.069 0.045-0.111 0.058c-0.041 0.013-0.086 0.020-0.131 0.020s-0.089-0.007-0.131-0.020c-0.041-0.013-0.079-0.033-0.111-0.058-0.842-0.673-2.27-1.145-3.888-1.145-1.339 0-2.541 0.321-3.391 0.811-0.495 0.286-0.855 0.627-1.078 1h6.216c0.045-0.001 0.090 0.006 0.132 0.019s0.080 0.033 0.112 0.058 0.058 0.054 0.075 0.087c0.017 0.033 0.026 0.068 0.026 0.103s-0.009 0.070-0.026 0.103c-0.017 0.033-0.043 0.062-0.075 0.087s-0.070 0.044-0.112 0.058c-0.042 0.013-0.087 0.020-0.132 0.019h-6.428c-0.022 0.104-0.043 0.204-0.043 0.311 0 0.104 0.022 0.21 0.043 0.311h6.428c0.045-0 0.090 0.006 0.132 0.019s0.080 0.033 0.112 0.058 0.058 0.054 0.075 0.087c0.017 0.033 0.026 0.068 0.026 0.103s-0.009 0.070-0.026 0.103c-0.017 0.033-0.043 0.062-0.075 0.087s-0.070 0.044-0.112 0.058c-0.042 0.013-0.087 0.020-0.132 0.019h-6.215c0.223 0.375 0.582 0.715 1.078 1 0.851 0.489 2.052 0.8 3.391 0.8 1.619 0 3.046-0.461 3.888-1.134 0.032-0.025 0.069-0.044 0.111-0.058s0.086-0.020 0.131-0.020 0.089 0.007 0.131 0.020c0.041 0.013 0.079 0.033 0.111 0.058s0.057 0.054 0.074 0.087c0.017 0.032 0.026 0.067 0.026 0.102s-0.009 0.070-0.026 0.102c-0.017 0.032-0.042 0.062-0.074 0.087-0.999 0.798-2.589 1.289-4.371 1.289-1.474 0-2.805-0.346-3.789-0.911-0.663-0.381-1.161-0.869-1.419-1.423h-1.121c-0.090 0.006-0.18-0.017-0.249-0.062s-0.112-0.111-0.12-0.182c-0.008-0.071 0.021-0.141 0.080-0.195s0.142-0.088 0.232-0.094c0.019-0.001 0.038-0.001 0.057 0h0.951c-0.017-0.102-0.028-0.206-0.028-0.311s0.012-0.209 0.028-0.311h-0.951c-0.090 0.006-0.18-0.017-0.249-0.062s-0.112-0.111-0.12-0.182c-0.008-0.071 0.021-0.141 0.080-0.195s0.142-0.088 0.232-0.094c0.019-0.001 0.038-0.001 0.057 0h1.121c0.258-0.557 0.756-1.051 1.419-1.434 0.984-0.567 2.315-0.911 3.789-0.911zM4.555 6.691v2.312c0 1.301 1.425 2.55 3.874 3.479s5.864 1.511 9.635 1.511c3.771 0 7.191-0.583 9.635-1.511s3.86-2.177 3.86-3.479v-2.312c-0.717 0.881-1.974 1.647-3.576 2.256-2.564 0.975-6.063 1.567-9.933 1.567-2.115 0-4.115-0.179-5.917-0.5-1.488-0.265-2.844-0.626-4.002-1.067-1.601-0.609-2.858-1.375-3.576-2.256zM29.898 8.335c0.2-0.033 0.416 0.106 0.412 0.267v2.012c0.003 0.141-0.161 0.267-0.341 0.267s-0.343-0.126-0.341-0.267v-2.012c-0.004-0.123 0.116-0.241 0.27-0.267zM32.24 8.369v0.633c0 1.599-1.677 2.982-4.243 3.957s-6.072 1.567-9.933 1.567c-2.717 0-5.246-0.298-7.407-0.811 0.651 0.702 1.721 1.351 3.136 1.889 2.439 0.928 5.85 1.512 9.621 1.512 3.781 0 7.194-0.583 9.635-1.511s3.86-2.177 3.86-3.479c0-1.302-1.419-2.55-3.86-3.479-0.256-0.097-0.533-0.189-0.809-0.278h-0.001zM8.84 9.691c0.197-0.020 0.393 0.123 0.383 0.278v1.845c0.003 0.141-0.161 0.267-0.341 0.267s-0.343-0.126-0.341-0.267v-1.845c-0.008-0.133 0.129-0.261 0.298-0.278zM26.138 10.036c0.192-0.019 0.384 0.115 0.383 0.267v2.012c0.003 0.141-0.161 0.267-0.341 0.267s-0.343-0.126-0.341-0.267v-2.012c-0.001-0.129 0.134-0.251 0.298-0.267zM14.233 10.881c0.2-0.033 0.416 0.106 0.412 0.267v1.845c0.003 0.141-0.161 0.267-0.341 0.267s-0.343-0.126-0.341-0.267v-1.845c-0.004-0.123 0.116-0.241 0.27-0.267zM20.335 11.003c0.2-0.033 0.416 0.107 0.412 0.267v2.012c0.003 0.141-0.161 0.267-0.341 0.267s-0.343-0.126-0.341-0.267v-2.012c-0.004-0.123 0.116-0.241 0.27-0.267zM6.882 12.403c-1.11 0.238-2.125 0.531-3.008 0.867-2.439 0.928-3.86 2.166-3.86 3.467s1.421 2.551 3.86 3.479c2.439 0.928 5.85 1.511 9.621 1.511 1.831 0 3.575-0.142 5.165-0.389-1.948-0.269-3.71-0.693-5.165-1.245-2.57-0.975-4.257-2.357-4.257-3.957v-2.801c-0.384-0.118-0.756-0.245-1.107-0.378-0.45-0.17-0.858-0.361-1.249-0.556zM9.919 13.826v2.312c0 1.301 1.425 2.55 3.874 3.479s5.864 1.512 9.635 1.512c3.771 0 7.191-0.583 9.635-1.512s3.86-2.177 3.86-3.479v-2.312c-0.717 0.881-1.974 1.647-3.576 2.256-2.564 0.975-6.063 1.567-9.933 1.567-3.861 0-7.358-0.592-9.919-1.567-1.601-0.609-2.858-1.375-3.576-2.256zM35.277 15.46c0.009-0 0.019-0 0.028 0s0.019-0 0.028 0c0.183-0 0.348 0.135 0.341 0.278v2.012c0.003 0.141-0.161 0.267-0.341 0.267s-0.343-0.126-0.341-0.267v-2.012c-0.005-0.12 0.107-0.237 0.255-0.267 0.009-0.004 0.019-0.008 0.028-0.011zM14.176 16.826c0.009-0 0.019-0 0.028 0 0.192-0.013 0.378 0.127 0.369 0.278v1.845c0.003 0.141-0.161 0.267-0.341 0.267s-0.343-0.126-0.341-0.267v-1.845c-0.009-0.13 0.12-0.257 0.284-0.278zM31.474 17.171c0.009-0 0.019-0 0.028 0 0.192-0.019 0.384 0.115 0.383 0.267v2.012c0.003 0.141-0.161 0.267-0.341 0.267s-0.343-0.126-0.341-0.267v-2.012c-0.004-0.123 0.116-0.241 0.27-0.267zM19.64 18.005c0.009-0 0.019-0 0.028 0 0.183-0 0.348 0.135 0.341 0.278v1.845c0.003 0.141-0.161 0.267-0.341 0.267s-0.343-0.126-0.341-0.267v-1.845c-0.004-0.123 0.116-0.241 0.27-0.267 0.014-0.004 0.028-0.008 0.043-0.011zM25.727 18.147c0.009-0 0.019-0 0.028 0 0.183-0 0.348 0.135 0.341 0.278v2.012c0.003 0.141-0.161 0.267-0.341 0.267s-0.343-0.126-0.341-0.267v-2.012c-0.004-0.123 0.116-0.241 0.27-0.267 0.014-0.004 0.028-0.008 0.043-0.011zM0 18.458v2.312c0 1.301 1.425 2.55 3.874 3.479s5.864 1.511 9.635 1.511c3.771 0 7.191-0.583 9.635-1.511 1.971-0.749 3.274-1.709 3.704-2.734-0.361 0.035-0.722 0.065-1.093 0.089v0.778c0.003 0.141-0.161 0.267-0.341 0.267s-0.343-0.126-0.341-0.267v-0.733c-0.54 0.024-1.090 0.033-1.646 0.033-1.001 0-1.98-0.046-2.923-0.122-2.069 0.456-4.455 0.722-7.010 0.722-3.861 0-7.357-0.592-9.919-1.567-1.601-0.609-2.858-1.375-3.576-2.256zM33.702 19.97c-0.115 0.047-0.222 0.099-0.341 0.144-1.604 0.609-3.58 1.074-5.775 1.334-0.4 1.312-1.948 2.444-4.143 3.279-2.566 0.975-6.072 1.567-9.933 1.567h-0.298c2.396 0.825 5.597 1.334 9.124 1.334 3.781 0 7.194-0.583 9.635-1.512s3.86-2.177 3.86-3.479c0-0.953-0.764-1.876-2.129-2.667zM4.3 21.459c0.009-0 0.019-0 0.028 0 0.183-0 0.348 0.135 0.341 0.278v1.856c0.003 0.141-0.161 0.267-0.341 0.267s-0.343-0.126-0.341-0.267v-1.856c-0.004-0.123 0.116-0.241 0.27-0.267 0.014-0.004 0.028-0.008 0.043-0.011zM21.598 21.803c0.009-0 0.019-0 0.028 0 0.183-0 0.348 0.135 0.341 0.278v2.012c0.003 0.141-0.161 0.267-0.341 0.267s-0.343-0.126-0.341-0.267v-2.012c-0.004-0.123 0.116-0.241 0.27-0.267 0.014-0.004 0.028-0.008 0.043-0.011zM9.678 22.648c0.009-0 0.019-0 0.028 0 0.192-0.019 0.384 0.115 0.383 0.267v1.856c0.003 0.141-0.161 0.267-0.341 0.267s-0.343-0.126-0.341-0.267v-1.856c-0.004-0.123 0.116-0.241 0.27-0.267zM15.78 22.77c0.009-0 0.019-0 0.028 0 0.197-0.020 0.393 0.123 0.383 0.278v2.012c0.003 0.141-0.161 0.267-0.341 0.267s-0.343-0.126-0.341-0.267v-2.012c-0.010-0.127 0.111-0.252 0.27-0.278zM35.845 24.337c-0.717 0.881-1.974 1.647-3.576 2.256-2.564 0.975-6.063 1.567-9.933 1.567-3.861 0-7.358-0.592-9.919-1.567-0.293-0.112-0.568-0.234-0.837-0.356-0.949-0.050-1.859-0.137-2.739-0.256v0.667c0 1.301 1.425 2.55 3.874 3.479s5.864 1.511 9.635 1.511c3.771 0 7.191-0.583 9.635-1.511s3.86-2.177 3.86-3.479l-0-2.312zM34.256 25.971c0.183-0 0.348 0.135 0.341 0.278v2.012c0.003 0.141-0.161 0.267-0.341 0.267s-0.343-0.126-0.341-0.267v-2.012c-0.004-0.123 0.116-0.241 0.27-0.267 0.023-0.006 0.047-0.008 0.071-0.011zM13.113 27.338c0.009-0 0.019-0 0.028 0s0.019-0 0.028 0c0.183-0 0.348 0.135 0.341 0.278v1.845c0.003 0.141-0.161 0.267-0.341 0.267s-0.343-0.126-0.341-0.267v-1.845c-0.009-0.13 0.12-0.257 0.284-0.278zM30.396 27.682c0.009-0 0.019-0 0.028 0 0.197-0.020 0.393 0.123 0.383 0.278v2.012c0.003 0.141-0.161 0.267-0.341 0.267s-0.343-0.126-0.341-0.267v-2.012c-0.010-0.127 0.111-0.252 0.27-0.278zM18.59 28.516c0.183-0 0.348 0.135 0.341 0.278v1.845c0.003 0.141-0.161 0.267-0.341 0.267s-0.343-0.126-0.341-0.267v-1.845c-0.004-0.123 0.116-0.241 0.27-0.267 0.023-0.006 0.047-0.008 0.071-0.011zM24.62 28.649c0.009-0 0.019-0 0.028 0 0.192-0.019 0.384 0.115 0.383 0.267v2.012c0.003 0.141-0.161 0.267-0.341 0.267s-0.343-0.126-0.341-0.267v-2.012c-0.004-0.123 0.116-0.241 0.27-0.267z"></path>
</svg>
