<!-- Generated by IcoMoon.io -->
<svg version="1.1" xmlns="http://www.w3.org/2000/svg" width="37" height="32" viewBox="0 0 37 32">
<title>fitness</title>
<path d="M31.805 4.113c-0.731 0.008-1.704 1.057-2.034 1.504s-0.169 0.861 0.080 1.171c0 0 0.090 0.574 0.538 0.503 0.059 0.49 0.488 0.43 0.488 0.43 0.029 0.872 1.555 0.615 1.99 0.574 1.048 1.74-0.703 3.545 0 6.489-2.078-2.174-4.105 0-4.105 0-3.056-2.283-5.661 0-5.661 0-0.659-0.679-1.414-1.136-2.094-1.443l-0.121-2.025c0 0 0.373-0.941 0.715-2.257 0.404-0.323 0.658-0.476 0.852-1.318 0.282-1.24 0.013-1.683-0.338-1.683 0.087-1.068 0.245-2.362 0.029-3.11-0.591-2.079-2.822-2.949-3.682-2.949-0.677 0-1.732 0.185-1.976 1.142-0.84 0.165-1.503 0.683-1.751 1.805-0.193 0.864 0.011 2.246 0.075 3.112-0.352 0-0.621 0.443-0.338 1.683 0.193 0.842 0.364 0.96 0.851 1.318 0.34 1.316 0.715 2.257 0.715 2.257l-0.12 2.025c-0.682 0.305-1.435 0.762-2.096 1.443 0 0-2.605-2.283-5.66 0 0 0-2.027-2.174-4.107 0 0.703-2.944-1.048-4.747 0-6.489 0.435 0.041 1.96 0.297 1.99-0.574 0 0 0.429 0.060 0.488-0.43 0.448 0.071 0.538-0.503 0.538-0.503 0.249-0.31 0.41-0.724 0.080-1.171s-1.304-1.496-2.034-1.504c-0.728-0.008-2.214 1.359-2.779 2.336-0.535 0.93-2.624 5.043-2.308 11.114 0.028 0.522 0.413 1.047 0.816 1.245 1.687 0.823 2.399 2.221 3.809 2.645 0 0 3.707 1.142 5.109-0.24 0.481 3.982 2.577 6.218 2.92 9.953 0.024 0.261 0.211 0.473 0.429 0.473h10.693c0.218 0 0.405-0.212 0.429-0.473 0.344-3.733 2.44-5.972 2.921-9.953 1.402 1.383 5.109 0.24 5.109 0.24 1.41-0.424 2.122-1.822 3.809-2.645 0.406-0.198 0.791-0.723 0.816-1.245 0.316-6.071-1.772-10.184-2.308-11.114-0.563-0.978-2.049-2.344-2.777-2.336z"></path>
</svg>
