<!-- Generated by IcoMoon.io -->
<svg version="1.1" xmlns="http://www.w3.org/2000/svg" width="37" height="32" viewBox="0 0 37 32">
<title>health</title>
<path d="M28.879 10.156c2.37 0 4.585 0.811 6.334 2.23 1.127-3.893-0.117-8.354-3.808-10.868-3.653-2.514-8.588-1.784-11.697 1.46l-1.943 2.028-2.098-2.19c-4.041-4.218-10.881-3.69-14.223 1.541-2.409 3.812-1.71 8.962 1.399 12.166l14.067 14.721c0.505 0.527 1.282 0.527 1.788 0l2.526-2.636c-1.749-1.947-2.837-4.583-2.837-7.462 0-6.043 4.702-10.99 10.492-10.99z"></path>
<path d="M28.879 12.751c-4.43 0-8.044 3.731-8.044 8.395s3.575 8.395 8.044 8.395c4.469 0 8.044-3.731 8.044-8.395s-3.575-8.395-8.044-8.395zM32.92 22.078c0 0.243-0.194 0.446-0.427 0.446h-2.332v2.433c0 0.243-0.194 0.446-0.427 0.446h-1.749c-0.233 0-0.427-0.203-0.427-0.446v-2.433h-2.332c-0.233 0-0.427-0.203-0.427-0.446v-1.825c0-0.243 0.194-0.446 0.427-0.446h2.332v-2.433c0-0.243 0.194-0.446 0.427-0.446h1.749c0.233 0 0.427 0.203 0.427 0.446v2.433h2.332c0.233 0 0.427 0.203 0.427 0.446v1.825z"></path>
</svg>
