<!-- Generated by IcoMoon.io -->
<svg version="1.1" xmlns="http://www.w3.org/2000/svg" width="37" height="32" viewBox="0 0 37 32">
<title>programming</title>
<path d="M29.804 17.906v-0.001c0.012 0.080 0.045 0.155 0.098 0.216s0.121 0.107 0.197 0.132c0.137 0.044 0.275 0.095 0.404 0.148s0.258 0.113 0.386 0.18c0.072 0.037 0.152 0.053 0.233 0.047s0.157-0.035 0.222-0.084l1.753-1.305c0.021-0.017 0.047-0.027 0.073-0.028 0.006 0 0.012 0.003 0.016 0.007l1.324 1.323c0.004 0.005 0.005 0.011 0.005 0.017-0.001 0.027-0.011 0.053-0.028 0.074l-1.293 1.735c-0.053 0.065-0.085 0.144-0.094 0.228s0.007 0.168 0.046 0.242c0.066 0.129 0.126 0.258 0.18 0.386 0.051 0.123 0.098 0.249 0.14 0.378 0.021 0.083 0.066 0.157 0.129 0.215s0.142 0.094 0.227 0.107l2.16 0.316c0.026 0.002 0.051 0.013 0.070 0.031 0.004 0.004 0.007 0.010 0.008 0.016v1.872c-0.001 0.006-0.003 0.012-0.008 0.016-0.019 0.018-0.044 0.028-0.070 0.030l-2.16 0.316c-0.080 0.012-0.155 0.045-0.216 0.098s-0.107 0.121-0.132 0.197c-0.045 0.141-0.095 0.276-0.148 0.404s-0.113 0.257-0.18 0.386c-0.037 0.072-0.053 0.152-0.047 0.233s0.035 0.157 0.084 0.222l1.304 1.751c0.017 0.021 0.027 0.047 0.028 0.073-0 0.006-0.002 0.012-0.006 0.016l-1.324 1.323c-0.004 0.004-0.010 0.006-0.016 0.006-0.027-0.001-0.053-0.011-0.073-0.028l-1.735-1.293c-0.065-0.053-0.144-0.085-0.228-0.094s-0.167 0.007-0.242 0.046c-0.123 0.063-0.245 0.12-0.366 0.172l-0.022 0.008c-0.127 0.053-0.252 0.099-0.377 0.14-0.083 0.021-0.157 0.066-0.214 0.129s-0.094 0.142-0.106 0.227l-0.316 2.16c-0.002 0.026-0.013 0.050-0.030 0.070-0.004 0.004-0.010 0.007-0.016 0.008h-1.872c-0.006-0.001-0.012-0.004-0.016-0.008-0.017-0.019-0.028-0.044-0.030-0.070l-0.316-2.16c-0.012-0.080-0.046-0.155-0.098-0.216s-0.121-0.107-0.198-0.132c-0.132-0.043-0.267-0.092-0.402-0.148h-0.002c-0.129-0.053-0.257-0.113-0.386-0.18-0.072-0.037-0.152-0.053-0.233-0.047s-0.157 0.035-0.222 0.084l-1.751 1.304c-0.021 0.017-0.047 0.027-0.073 0.028-0.006-0-0.012-0.002-0.016-0.006l-1.323-1.323c-0.004-0.004-0.006-0.010-0.006-0.016 0.001-0.027 0.011-0.053 0.028-0.073l1.293-1.735c0.053-0.065 0.085-0.144 0.094-0.228s-0.007-0.168-0.046-0.242c-0.066-0.129-0.126-0.258-0.18-0.386-0.051-0.123-0.098-0.249-0.14-0.378-0.021-0.083-0.066-0.157-0.129-0.214s-0.142-0.094-0.227-0.106l-2.16-0.316c-0.026-0.002-0.051-0.013-0.070-0.030-0.005-0.004-0.007-0.010-0.008-0.016v-1.872c0.001-0.006 0.004-0.012 0.008-0.016 0.019-0.018 0.044-0.029 0.070-0.031l2.16-0.316c0.080-0.012 0.155-0.045 0.216-0.098s0.107-0.121 0.132-0.197c0.044-0.137 0.095-0.275 0.148-0.404s0.113-0.258 0.18-0.386c0.037-0.072 0.053-0.152 0.047-0.233s-0.035-0.157-0.084-0.222l-1.304-1.75c-0.017-0.021-0.027-0.047-0.028-0.074 0-0.006 0.002-0.012 0.006-0.016l1.323-1.323c0.004-0.004 0.010-0.007 0.016-0.007 0.027 0.001 0.053 0.011 0.073 0.028l1.733 1.293c0.065 0.053 0.144 0.085 0.228 0.094s0.168-0.007 0.242-0.046c0.123-0.063 0.245-0.12 0.366-0.172 0.007-0.002 0.014-0.005 0.022-0.008 0.127-0.052 0.252-0.099 0.377-0.14 0.083-0.021 0.157-0.066 0.214-0.13s0.094-0.142 0.106-0.227l0.316-2.16c0.002-0.026 0.013-0.051 0.030-0.070 0.004-0.005 0.010-0.008 0.016-0.008h1.872c0.006 0.001 0.012 0.004 0.016 0.008 0.018 0.019 0.028 0.044 0.030 0.070l0.316 2.16zM3.979 21.481h12.028c0.058 0.002 0.116-0.008 0.17-0.029s0.103-0.053 0.145-0.093c0.042-0.040 0.075-0.089 0.097-0.142s0.034-0.111 0.034-0.169-0.012-0.115-0.034-0.169c-0.023-0.053-0.056-0.102-0.097-0.142s-0.091-0.072-0.145-0.093c-0.054-0.021-0.112-0.031-0.17-0.029h-12.028c-0.058-0.002-0.116 0.008-0.17 0.029s-0.103 0.053-0.145 0.093c-0.042 0.040-0.075 0.089-0.097 0.142s-0.034 0.111-0.034 0.169c0 0.058 0.012 0.115 0.034 0.169s0.056 0.102 0.097 0.142c0.042 0.040 0.091 0.072 0.145 0.093s0.112 0.031 0.17 0.029zM3.979 19.436h12.028c0.058 0.002 0.116-0.008 0.17-0.029s0.103-0.053 0.145-0.093c0.042-0.040 0.075-0.089 0.097-0.142s0.034-0.111 0.034-0.169-0.012-0.115-0.034-0.169c-0.023-0.053-0.056-0.102-0.097-0.142s-0.091-0.072-0.145-0.093c-0.054-0.021-0.112-0.031-0.17-0.029h-12.028c-0.058-0.002-0.116 0.008-0.17 0.029s-0.103 0.053-0.145 0.093c-0.042 0.040-0.075 0.089-0.097 0.142s-0.034 0.111-0.034 0.169c0 0.058 0.012 0.115 0.034 0.169s0.056 0.102 0.097 0.142c0.042 0.040 0.091 0.072 0.145 0.093s0.112 0.031 0.17 0.029zM28.8 3.048c-0.001 0.399-0.16 0.781-0.442 1.063s-0.664 0.441-1.063 0.442h-5.624c-0.395-0.007-0.771-0.168-1.048-0.449s-0.432-0.661-0.432-1.056 0.155-0.774 0.432-1.056c0.277-0.282 0.653-0.443 1.048-0.45h5.625c0.399 0.001 0.781 0.16 1.062 0.442s0.441 0.664 0.442 1.063zM27.935 3.048c-0.001-0.169-0.068-0.332-0.188-0.451s-0.282-0.187-0.451-0.188h-5.624c-0.167 0.004-0.325 0.073-0.442 0.193s-0.182 0.28-0.182 0.446 0.065 0.327 0.182 0.446c0.116 0.119 0.275 0.189 0.442 0.193h5.625c0.169-0.001 0.332-0.068 0.452-0.188s0.187-0.282 0.188-0.452h-0.001zM12.058 1.629c-0.186-0-0.371 0.036-0.543 0.108s-0.329 0.176-0.46 0.308c-0.232 0.232-0.377 0.538-0.409 0.865s0.050 0.655 0.232 0.928c0.182 0.273 0.454 0.474 0.768 0.57s0.652 0.079 0.955-0.047 0.554-0.353 0.709-0.642c0.155-0.29 0.204-0.624 0.14-0.946s-0.238-0.612-0.492-0.82c-0.254-0.208-0.572-0.322-0.901-0.322zM12.45 2.654c0.052 0.051 0.093 0.112 0.121 0.179s0.043 0.139 0.043 0.212c0 0.128-0.044 0.252-0.125 0.352s-0.194 0.167-0.319 0.193c-0.126 0.025-0.256 0.007-0.369-0.053s-0.202-0.157-0.252-0.275c-0.049-0.118-0.056-0.25-0.020-0.373s0.115-0.229 0.221-0.301c0.106-0.072 0.234-0.104 0.361-0.092s0.247 0.068 0.338 0.158zM8.542 1.629c-0.186-0-0.371 0.036-0.543 0.108s-0.329 0.176-0.46 0.308c-0.232 0.232-0.377 0.538-0.409 0.864s0.050 0.654 0.232 0.927 0.454 0.474 0.768 0.57c0.314 0.095 0.652 0.079 0.955-0.047s0.554-0.352 0.709-0.642c0.155-0.289 0.204-0.624 0.141-0.946s-0.238-0.612-0.491-0.82c-0.254-0.208-0.572-0.322-0.9-0.322zM8.934 2.654c0.051 0.051 0.092 0.113 0.12 0.18s0.042 0.139 0.042 0.212c0 0.128-0.044 0.253-0.126 0.352s-0.195 0.167-0.321 0.192c-0.126 0.025-0.257 0.006-0.37-0.055s-0.202-0.158-0.251-0.277c-0.049-0.119-0.055-0.251-0.018-0.373s0.116-0.229 0.223-0.3c0.107-0.071 0.235-0.103 0.363-0.091s0.247 0.069 0.338 0.16zM5.026 1.629c-0.186-0-0.371 0.036-0.543 0.108s-0.329 0.176-0.46 0.308c-0.232 0.232-0.377 0.538-0.409 0.864s0.050 0.654 0.232 0.927c0.182 0.273 0.454 0.474 0.768 0.57s0.652 0.079 0.955-0.047c0.303-0.126 0.554-0.352 0.709-0.642s0.205-0.624 0.141-0.946c-0.064-0.322-0.238-0.612-0.491-0.82s-0.572-0.322-0.9-0.322zM5.417 2.654c-0.091-0.090-0.211-0.146-0.338-0.158s-0.256 0.021-0.362 0.092c-0.106 0.072-0.185 0.178-0.221 0.301s-0.030 0.255 0.020 0.373c0.050 0.118 0.139 0.216 0.252 0.276s0.244 0.079 0.37 0.053c0.126-0.026 0.239-0.094 0.32-0.193s0.125-0.224 0.125-0.352c-0-0.073-0.015-0.145-0.043-0.212s-0.069-0.128-0.121-0.18zM28.505 19.315c-0.513-0.001-1.021 0.1-1.495 0.297s-0.904 0.484-1.267 0.848c-0.639 0.639-1.037 1.48-1.125 2.379s0.138 1.802 0.64 2.553c0.502 0.751 1.249 1.305 2.114 1.568s1.794 0.217 2.629-0.129c0.835-0.346 1.524-0.971 1.95-1.768s0.562-1.717 0.386-2.603c-0.176-0.886-0.655-1.684-1.353-2.257s-1.574-0.887-2.478-0.886zM30.655 21.071c0.497 0.497 0.806 1.152 0.875 1.852s-0.107 1.402-0.498 1.986c-0.391 0.585-0.972 1.016-1.645 1.22s-1.396 0.169-2.045-0.101c-0.65-0.269-1.186-0.755-1.517-1.375s-0.438-1.336-0.3-2.026c0.137-0.69 0.509-1.31 1.053-1.757s1.225-0.69 1.928-0.69c0.399-0 0.795 0.078 1.164 0.231s0.704 0.377 0.986 0.66zM22.065 26.983h-0.001l-0.232 0.313c-0.133 0.176-0.202 0.391-0.197 0.611 0.005 0.227 0.096 0.443 0.256 0.604l1.323 1.323c0.161 0.16 0.377 0.252 0.604 0.256 0.22 0.005 0.435-0.064 0.611-0.197l1.541-1.149c0.068 0.031 0.137 0.061 0.208 0.090 0.069 0.028 0.14 0.056 0.212 0.082l0.278 1.9c0.031 0.219 0.134 0.422 0.294 0.574 0.163 0.157 0.381 0.245 0.608 0.246h1.871c0.227-0 0.444-0.089 0.608-0.246 0.16-0.153 0.264-0.355 0.295-0.574l0.278-1.9c0.072-0.026 0.142-0.054 0.212-0.082l0.022-0.010c0.063-0.027 0.125-0.055 0.185-0.082l1.541 1.149c0.176 0.132 0.391 0.202 0.611 0.197 0.227-0.005 0.443-0.096 0.604-0.256l1.324-1.323c0.16-0.161 0.252-0.377 0.256-0.604 0.005-0.22-0.065-0.435-0.197-0.611l-1.149-1.541c0.031-0.069 0.062-0.138 0.091-0.209 0.027-0.069 0.055-0.14 0.082-0.21l1.901-0.278c0.219-0.030 0.422-0.134 0.574-0.294 0.157-0.163 0.245-0.381 0.246-0.608v-1.872c-0.001-0.227-0.089-0.444-0.246-0.608-0.153-0.16-0.355-0.264-0.574-0.295l-1.901-0.278c-0.026-0.071-0.053-0.139-0.082-0.21s-0.059-0.14-0.091-0.209l1.149-1.541c0.133-0.176 0.202-0.391 0.197-0.611-0.005-0.226-0.097-0.442-0.256-0.602l-1.32-1.323c-0.161-0.16-0.377-0.252-0.604-0.256-0.22-0.005-0.435 0.065-0.611 0.197l-0.172 0.128v-13.187c-0.003-0.925-0.371-1.811-1.026-2.465s-1.541-1.022-2.466-1.024h-25.43c-0.925 0.003-1.811 0.371-2.464 1.025s-1.022 1.54-1.025 2.464v20.007c0.003 0.924 0.372 1.81 1.025 2.463s1.54 1.021 2.464 1.024h18.576zM31.542 17.321l-0.503 0.375c-0.069-0.031-0.138-0.061-0.209-0.091-0.069-0.029-0.139-0.056-0.21-0.082l-0.278-1.901c-0.031-0.219-0.134-0.422-0.295-0.574-0.163-0.157-0.381-0.245-0.608-0.246h-1.871c-0.227 0.001-0.445 0.089-0.608 0.246-0.16 0.153-0.264 0.355-0.294 0.574l-0.278 1.9c-0.072 0.027-0.142 0.055-0.212 0.082-0.007 0.003-0.015 0.006-0.022 0.010-0.063 0.027-0.125 0.055-0.185 0.082l-1.541-1.149c-0.176-0.133-0.391-0.202-0.611-0.197-0.227 0.004-0.443 0.096-0.604 0.256l-1.323 1.323c-0.16 0.161-0.252 0.377-0.256 0.604-0.005 0.22 0.065 0.436 0.197 0.611l1.149 1.541c-0.031 0.069-0.062 0.138-0.091 0.209s-0.057 0.14-0.082 0.21l-1.901 0.278c-0.219 0.031-0.421 0.135-0.574 0.295-0.157 0.163-0.245 0.381-0.246 0.608v1.872c0.001 0.227 0.089 0.445 0.246 0.608 0.153 0.16 0.355 0.264 0.574 0.294l1.9 0.278c0.027 0.071 0.055 0.141 0.082 0.21 0.029 0.071 0.059 0.14 0.091 0.209l-0.27 0.363h-19.221c-0.696-0.002-1.363-0.279-1.855-0.771s-0.769-1.159-0.771-1.855v-17.396h30.679v11.225h-0.001zM6.7 9.747c0.040-0.043 0.087-0.077 0.14-0.101s0.11-0.037 0.169-0.038c0.058-0.001 0.116 0.009 0.17 0.031s0.103 0.054 0.144 0.095c0.041 0.041 0.074 0.090 0.096 0.144s0.033 0.112 0.032 0.17c-0.001 0.058-0.014 0.116-0.037 0.169s-0.058 0.101-0.1 0.141l-2.579 2.579 2.579 2.579c0.040 0.040 0.072 0.088 0.094 0.14s0.033 0.109 0.033 0.166c0 0.057-0.011 0.113-0.033 0.166s-0.054 0.1-0.094 0.14c-0.040 0.040-0.088 0.072-0.14 0.094s-0.109 0.033-0.166 0.033c-0.057 0-0.113-0.011-0.166-0.033s-0.1-0.054-0.14-0.094l-2.885-2.885c-0.040-0.040-0.072-0.088-0.094-0.14s-0.033-0.109-0.033-0.166c0-0.057 0.011-0.113 0.033-0.166s0.054-0.1 0.094-0.14l2.885-2.884zM12.673 10.358v0.001c-0.040-0.040-0.072-0.088-0.094-0.14s-0.033-0.109-0.033-0.166c0-0.057 0.011-0.113 0.033-0.166s0.054-0.1 0.094-0.14c0.040-0.040 0.088-0.072 0.14-0.094s0.109-0.033 0.166-0.033c0.057 0 0.113 0.011 0.166 0.033s0.1 0.054 0.14 0.094l2.885 2.884c0.081 0.081 0.126 0.191 0.126 0.306s-0.045 0.225-0.126 0.306l-2.885 2.885c-0.040 0.040-0.088 0.072-0.14 0.094s-0.109 0.033-0.166 0.033c-0.057 0-0.113-0.011-0.166-0.033s-0.1-0.054-0.14-0.094c-0.040-0.040-0.072-0.088-0.094-0.14s-0.033-0.109-0.033-0.166c0-0.057 0.011-0.113 0.033-0.166s0.054-0.1 0.094-0.14l2.579-2.579-2.579-2.579zM10.4 9.747c0.013-0.057 0.037-0.11 0.071-0.158s0.077-0.087 0.127-0.117c0.050-0.030 0.105-0.050 0.163-0.058s0.116-0.005 0.173 0.010c0.056 0.015 0.109 0.041 0.155 0.077s0.084 0.080 0.112 0.131c0.028 0.051 0.046 0.107 0.052 0.165s0 0.116-0.017 0.172l-1.651 6.16c-0.030 0.111-0.102 0.205-0.201 0.262s-0.217 0.073-0.328 0.043-0.205-0.102-0.262-0.201c-0.057-0.099-0.073-0.217-0.043-0.328l1.65-6.158zM31.543 5.234l-30.679-0.004v-1.742c0.002-0.696 0.279-1.362 0.771-1.854s1.159-0.769 1.854-0.771h25.428c0.696 0.002 1.362 0.279 1.854 0.771s0.769 1.159 0.771 1.854v1.745z"></path>
</svg>
