<!-- Generated by IcoMoon.io -->
<svg version="1.1" xmlns="http://www.w3.org/2000/svg" width="37" height="32" viewBox="0 0 37 32">
<title>work</title>
<path d="M3.071 31.244l4.35 0.393 11.040 0.003v-1.131h-9.761l-0.064-0.304 2.764 0.012-0.247-2.199-2.925-0.057-1.215-8.932h11.448v-1.131h-12.87l1.519 11.172 0.305 1.432-3.986-0.343c-0.981-0.337-1.613-0.847-1.93-1.559-0.867-1.945 0.782-4.938 1.668-6.545 0.243-0.442 0.419-0.761 0.512-0.994 0.175-0.439 0.292-0.973 0.416-1.538 0.27-1.232 0.577-2.629 1.529-3.313 1.046-0.751 6.094-1.43 9.143-1.694 1.12 0.488 2.37 0.77 3.696 0.77s2.577-0.282 3.696-0.77c3.049 0.265 8.096 0.943 9.142 1.694 0.952 0.684 1.258 2.081 1.529 3.313 0.124 0.565 0.241 1.099 0.416 1.539 0.093 0.234 0.269 0.552 0.512 0.994 0.885 1.608 2.534 4.6 1.668 6.545-0.317 0.712-0.949 1.222-1.93 1.559l-3.988 0.343 0.3-1.432 1.526-11.172h-12.871v1.131h11.448l-1.214 8.932-2.925 0.057-0.247 2.199 2.764-0.012-0.064 0.304h-9.761v1.131h11.011l4.224-0.364 0.156-0.032c1.36-0.446 2.282-1.195 2.74-2.225 1.075-2.414-0.735-5.701-1.708-7.467-0.207-0.377-0.386-0.702-0.455-0.873-0.143-0.36-0.251-0.854-0.366-1.377-0.297-1.352-0.666-3.035-1.977-3.977-1.268-0.911-5.695-1.507-8.228-1.781 1.898-1.403 3.111-3.527 3.111-5.902 0-4.214-3.817-7.642-8.508-7.642s-8.508 3.428-8.508 7.642c0 2.375 1.213 4.5 3.111 5.902-2.533 0.275-6.96 0.87-8.228 1.781-1.311 0.942-1.681 2.625-1.977 3.977-0.115 0.523-0.223 1.017-0.366 1.377-0.068 0.172-0.248 0.497-0.455 0.874-0.973 1.766-2.783 5.053-1.708 7.467 0.458 1.030 1.381 1.779 2.74 2.225zM11.212 7.642c0-3.59 3.252-6.511 7.25-6.511s7.249 2.921 7.249 6.511c0 3.59-3.252 6.511-7.249 6.511s-7.25-2.92-7.25-6.511z"></path>
</svg>
