<svg xmlns="http://www.w3.org/2000/svg" version="1.1" xmlns:xlink="http://www.w3.org/1999/xlink" xmlns:svgjs="http://svgjs.dev/svgjs" width="1500" height="1500" viewBox="0 0 1500 1500"><g transform="matrix(1,0,0,1,-0.323615160350073,-0.3236151603499593)"><svg viewBox="0 0 343 343" data-background-color="#232b2f" preserveAspectRatio="xMidYMid meet" height="1500" width="1500" xmlns="http://www.w3.org/2000/svg" xmlns:xlink="http://www.w3.org/1999/xlink"><g id="tight-bounds" transform="matrix(1,0,0,1,0.0740000000000407,0.07400000000001228)"><svg viewBox="0 0 342.85155851775386 342.85155851775386" height="342.85155851775386" width="342.85155851775386"><g><svg></svg></g><g><svg viewBox="0 0 342.85155851775386 342.85155851775386" height="342.85155851775386" width="342.85155851775386"><g><path d="M0 171.426c0-94.676 76.75-171.426 171.426-171.426 94.676 0 171.426 76.75 171.426 171.426 0 94.676-76.75 171.426-171.426 171.426-94.676 0-171.426-76.75-171.426-171.426zM171.426 339.767c92.972 0 168.341-75.369 168.341-168.341 0-92.972-75.369-168.341-168.341-168.342-92.972 0-168.341 75.369-168.342 168.342 0 92.972 75.369 168.341 168.342 168.341z" data-fill-palette-color="tertiary" fill="#cda256" stroke="transparent"></path><ellipse rx="164.56874808852186" ry="164.56874808852186" cx="171.42577925887693" cy="171.42577925887693" fill="#cda256" stroke="transparent" stroke-width="0" fill-opacity="1" data-fill-palette-color="tertiary"></ellipse></g><g transform="matrix(1,0,0,1,64.84655864529837,126.6537463705807)"><svg viewBox="0 0 213.1584412271571 89.54406577659243" height="89.54406577659243" width="213.1584412271571"><g><svg viewBox="0 0 213.1584412271571 89.54406577659243" height="89.54406577659243" width="213.1584412271571"><g><svg viewBox="0 0 213.1584412271571 89.54406577659243" height="89.54406577659243" width="213.1584412271571"><g transform="matrix(1,0,0,1,0,55.341824979689505)"><svg viewBox="0 0 213.1584412271571 34.20224079690293" height="34.20224079690293" width="213.1584412271571"><g id="textblocktransform"><svg viewBox="0 0 213.1584412271571 34.20224079690293" height="34.20224079690293" width="213.1584412271571" id="textblock"><g><svg viewBox="0 0 213.1584412271571 34.20224079690293" height="34.20224079690293" width="213.1584412271571"><g transform="matrix(1,0,0,1,0,0)"><svg width="213.1584412271571" viewBox="5.25 -35 219.99 35.3" height="34.20224079690293" data-palette-color="#232b2f"><path d="M5.25 0L5.25-35 20-35Q25.55-35 29.85-32.8 34.15-30.6 36.52-26.63 38.9-22.65 38.9-17.5L38.9-17.5Q38.9-12.35 36.52-8.38 34.15-4.4 29.85-2.2 25.55 0 20 0L20 0 5.25 0ZM10.25-4.35L19.7-4.35Q23.95-4.35 27.18-6 30.4-7.65 32.15-10.63 33.9-13.6 33.9-17.5L33.9-17.5Q33.9-21.4 32.15-24.38 30.4-27.35 27.18-29 23.95-30.65 19.7-30.65L19.7-30.65 10.25-30.65 10.25-4.35ZM65.75-26.5L70.55-26.5 70.55 0 66 0 66-4Q64.55-1.95 62.17-0.83 59.8 0.3 57 0.3L57 0.3Q51.7 0.3 48.65-2.63 45.6-5.55 45.6-11.25L45.6-11.25 45.6-26.5 50.4-26.5 50.4-11.8Q50.4-7.95 52.25-5.98 54.1-4 57.55-4L57.55-4Q61.35-4 63.55-6.3 65.75-8.6 65.75-12.8L65.75-12.8 65.75-26.5ZM103.65-13.1Q103.65-12.55 103.55-11.65L103.55-11.65 82.05-11.65Q82.5-8.15 85.12-6.03 87.75-3.9 91.65-3.9L91.65-3.9Q96.4-3.9 99.3-7.1L99.3-7.1 101.95-4Q100.15-1.9 97.47-0.8 94.8 0.3 91.5 0.3L91.5 0.3Q87.3 0.3 84.05-1.43 80.8-3.15 79.02-6.25 77.25-9.35 77.25-13.25L77.25-13.25Q77.25-17.1 78.97-20.2 80.7-23.3 83.72-25.03 86.75-26.75 90.55-26.75L90.55-26.75Q94.35-26.75 97.32-25.03 100.3-23.3 101.97-20.2 103.65-17.1 103.65-13.1L103.65-13.1ZM90.55-22.7Q87.1-22.7 84.77-20.6 82.45-18.5 82.05-15.1L82.05-15.1 99.05-15.1Q98.65-18.45 96.32-20.58 94-22.7 90.55-22.7L90.55-22.7ZM110.99 0L110.99-35 125.74-35Q131.29-35 135.59-32.8 139.89-30.6 142.27-26.63 144.64-22.65 144.64-17.5L144.64-17.5Q144.64-12.35 142.27-8.38 139.89-4.4 135.59-2.2 131.29 0 125.74 0L125.74 0 110.99 0ZM115.99-4.35L125.44-4.35Q129.69-4.35 132.92-6 136.14-7.65 137.89-10.63 139.64-13.6 139.64-17.5L139.64-17.5Q139.64-21.4 137.89-24.38 136.14-27.35 132.92-29 129.69-30.65 125.44-30.65L125.44-30.65 115.99-30.65 115.99-4.35ZM161.24-26.75Q166.74-26.75 169.67-24.05 172.59-21.35 172.59-16L172.59-16 172.59 0 168.04 0 168.04-3.5Q166.84-1.65 164.62-0.68 162.39 0.3 159.34 0.3L159.34 0.3Q154.89 0.3 152.22-1.85 149.54-4 149.54-7.5L149.54-7.5Q149.54-11 152.09-13.13 154.64-15.25 160.19-15.25L160.19-15.25 167.79-15.25 167.79-16.2Q167.79-19.3 165.99-20.95 164.19-22.6 160.69-22.6L160.69-22.6Q158.34-22.6 156.09-21.83 153.84-21.05 152.29-19.75L152.29-19.75 150.29-23.35Q152.34-25 155.19-25.88 158.04-26.75 161.24-26.75L161.24-26.75ZM160.14-3.4Q162.89-3.4 164.89-4.63 166.89-5.85 167.79-8.1L167.79-8.1 167.79-11.8 160.39-11.8Q154.29-11.8 154.29-7.7L154.29-7.7Q154.29-5.7 155.84-4.55 157.39-3.4 160.14-3.4L160.14-3.4ZM194.89-5L196.39-1.55Q195.34-0.65 193.79-0.18 192.24 0.3 190.59 0.3L190.59 0.3Q186.59 0.3 184.39-1.85 182.19-4 182.19-8L182.19-8 182.19-22.55 177.69-22.55 177.69-26.5 182.19-26.5 182.19-32.3 186.99-32.3 186.99-26.5 194.59-26.5 194.59-22.55 186.99-22.55 186.99-8.2Q186.99-6.05 188.06-4.9 189.14-3.75 191.14-3.75L191.14-3.75Q193.34-3.75 194.89-5L194.89-5ZM225.24-13.1Q225.24-12.55 225.14-11.65L225.14-11.65 203.64-11.65Q204.09-8.15 206.71-6.03 209.34-3.9 213.24-3.9L213.24-3.9Q217.99-3.9 220.89-7.1L220.89-7.1 223.54-4Q221.74-1.9 219.06-0.8 216.39 0.3 213.09 0.3L213.09 0.3Q208.89 0.3 205.64-1.43 202.39-3.15 200.61-6.25 198.84-9.35 198.84-13.25L198.84-13.25Q198.84-17.1 200.56-20.2 202.29-23.3 205.31-25.03 208.34-26.75 212.14-26.75L212.14-26.75Q215.94-26.75 218.91-25.03 221.89-23.3 223.56-20.2 225.24-17.1 225.24-13.1L225.24-13.1ZM212.14-22.7Q208.69-22.7 206.36-20.6 204.04-18.5 203.64-15.1L203.64-15.1 220.64-15.1Q220.24-18.45 217.91-20.58 215.59-22.7 212.14-22.7L212.14-22.7Z" opacity="1" transform="matrix(1,0,0,1,0,0)" fill="#232b2f" class="wordmark-text-0" data-fill-palette-color="quaternary" id="text-0"></path></svg></g></svg></g></svg></g></svg></g><g transform="matrix(1,0,0,1,82.9495998745588,0)"><svg viewBox="0 0 47.25924147803951 47.26749678131985" height="47.26749678131985" width="47.25924147803951"><g><svg xmlns="http://www.w3.org/2000/svg" viewBox="1.999997808046063 2 48.00000219195394 48.008386892240246" x="0" y="0" height="47.26749678131985" width="47.25924147803951" class="icon-icon-0" data-fill-palette-color="quaternary" id="icon-0"><path d="M14 26A12 12 0 0 0 2 38a12 12 0 0 0 22.74 5.36 11.15 11.15 0 0 0 0.54-1.28A11.75 11.75 0 0 0 26 38 12 12 0 0 0 14 26Zm0 21a9 9 0 1 1 9-9A9 9 0 0 1 14 47Z" fill="#232b2f" data-fill-palette-color="quaternary"></path><path d="M18 37.5H14.5V33a1.5 1.5 0 0 0-3 0v6A1.5 1.5 0 0 0 13 40.5h5a1.5 1.5 0 0 0 0-3Z" fill="#232b2f" data-fill-palette-color="quaternary"></path><path d="M17.57 12h0.86A2.82 2.82 0 0 0 21 9V5a2.82 2.82 0 0 0-2.57-3h-0.86A2.82 2.82 0 0 0 15 5V9A2.82 2.82 0 0 0 17.57 12Z" fill="#232b2f" data-fill-palette-color="quaternary"></path><path d="M37.57 12h0.86A2.82 2.82 0 0 0 41 9V5a2.82 2.82 0 0 0-2.57-3h-0.86A2.82 2.82 0 0 0 35 5V9A2.82 2.82 0 0 0 37.57 12Z" fill="#232b2f" data-fill-palette-color="quaternary"></path><path d="M46 6H43a0.5 0.5 0 0 0-0.5 0.5V9a4 4 0 0 1-4 4h-1a4 4 0 0 1-4-4V6.5A0.5 0.5 0 0 0 33 6H23a0.5 0.5 0 0 0-0.5 0.5V9a4 4 0 0 1-4 4h-1a4 4 0 0 1-4-4V6.5A0.5 0.5 0 0 0 13 6H10a4 4 0 0 0-4 4V26.52a12.91 12.91 0 0 1 2-1.17V18.5a0.5 0.5 0 0 1 0.5-0.5h39a0.5 0.5 0 0 1 0.5 0.5V40a2 2 0 0 1-2 2H27.42a13.78 13.78 0 0 1-0.77 2H46a4 4 0 0 0 4-4V10A4 4 0 0 0 46 6Z" fill="#232b2f" data-fill-palette-color="quaternary"></path></svg></g></svg></g><g></g></svg></g></svg></g></svg></g></svg></g><defs></defs></svg><rect width="342.85155851775386" height="342.85155851775386" fill="none" stroke="none" visibility="hidden"></rect></g></svg></g></svg>