<svg aria-hidden="true" style="position: absolute; width: 0; height: 0; overflow: hidden;" version="1.1" xmlns="http://www.w3.org/2000/svg" xmlns:xlink="http://www.w3.org/1999/xlink">
<defs>
<symbol id="icon-education" viewBox="0 0 37 32">
<path d="M32.347 5.207c-0.982 0.312-1.917 0.616-2.93 0.896 0.007-0.363-0.010-0.882 0-1.127-2.616-0.312-5.577-0.625-8.28-0.91-0.41-0.043-0.866-0.018-1.203-0.109-0.249-0.068-0.455-0.337-0.743-0.437-0.732-0.254-2.427-0.112-2.442 0.619-0.014 0.701 1.294 0.883 2.123 0.727 0.331-0.061 0.59-0.29 0.849-0.327 0.303-0.043 0.761 0.069 1.168 0.109 2.572 0.253 5.371 0.603 7.925 0.836 0 0.28 0 0.559 0 0.838-3.087 0.902-6.199 1.896-9.341 2.874-0.432 0.134-1.003 0.389-1.345 0.4-0.436 0.014-1.209-0.374-1.734-0.546-3.94-1.283-7.907-2.614-11.818-3.892 0-0.497 0-0.995 0-1.492 4.46-1.247 9.047-2.409 13.445-3.638 0.466-0.13 1.39 0.238 1.982 0.4 4.008 1.104 8.342 2.303 12.348 3.383l-0.005 1.396z"></path>
<path d="M29.346 6.606c0.024 0 0.047 0 0.071 0 0 0.86 0 1.721 0 2.582 0.608 0.205 0.997 1.224 0.46 1.782 0.975 0.306 0.483 2.122 0.601 3.31-0.783 0.342-1.985 0.323-2.796 0 0.117-1.177-0.368-2.973 0.602-3.273-0.485-0.575-0.186-1.698 0.531-1.783 0-0.812 0-1.625 0-2.437 0.156-0.083 0.371-0.104 0.531-0.181z"></path>
<path d="M26.198 8.249c-2.757 0.78-5.426 1.649-8.139 2.474-2.779-0.937-5.581-1.853-8.386-2.765-0.041 0.006-0.038 0.058-0.035 0.109-0.002 2.437 0.003 4.763 0 7.129 3.015 2.776 10.878 3.378 15.002 1.128 0.455-0.248 1.51-0.818 1.557-1.201v-6.874h-0z"></path>
<path d="M18.448 31.639c-5.779-2.789-11.626-5.508-17.444-8.258-1.242-1.249-1.325-4.668-0.283-6.222 2.585-1.235 5.172-2.467 7.784-3.673 0.032 0.711-0.137 1.542 0 2.218 0.094 0.461 1.408 1.104 1.84 1.347 1.967 1.103 4.728 1.855 7.572 1.855 4.251 0 7.423-1.108 9.412-3.165 0-0.17 0-0.34 0-0.509 1.305 0.538 3.292 0.264 4.317-0.328 0-0.873 0-1.746 0-2.619 1.71 0.946 3.386 1.927 5.095 2.873-6.265 3.176-12.582 6.297-18.859 9.459-5.403-2.315-10.76-4.677-16.134-7.021-0.997 1.002-0.99 3.819-0.142 4.984 5.156 2.41 16.439 7.82 16.63 7.821 0.218 0.002 0.841-0.405 1.168-0.582 5.564-3.021 11.273-6.027 16.842-9.022 0.136-0.042 0.044-0.318 0.071-0.474 0.189 0.158 0.439 0.252 0.601 0.437 0.028 0.283-0.054 0.454-0.035 0.728l-18.434 10.149z"></path>
<path d="M17.904 26.288l-15.908-7.239-0.041-0.304 15.907 7.239 0.041 0.304z"></path>
<path d="M18.033 27.827l-15.907-7.239-0.041-0.303 15.907 7.238 0.041 0.304z"></path>
<path d="M18.118 29.268l-15.907-7.238-0.041-0.304 15.907 7.238 0.041 0.304z"></path>
</symbol>
<symbol id="icon-finance" viewBox="0 0 37 32">
<path d="M18.050 0c-3.771 0-7.182 0.583-9.621 1.511s-3.86 2.177-3.86 3.479 1.421 2.55 3.86 3.479c2.439 0.928 5.85 1.511 9.621 1.511 3.781 0 7.194-0.583 9.635-1.511s3.86-2.177 3.86-3.479c0-1.302-1.419-2.55-3.86-3.479s-5.854-1.511-9.635-1.511zM18.618 1.411c1.783 0 3.372 0.503 4.371 1.3 0.032 0.025 0.057 0.054 0.074 0.087s0.026 0.067 0.026 0.102-0.009 0.070-0.026 0.102c-0.017 0.032-0.042 0.062-0.074 0.087s-0.069 0.045-0.111 0.058c-0.041 0.013-0.086 0.020-0.131 0.020s-0.089-0.007-0.131-0.020c-0.041-0.013-0.079-0.033-0.111-0.058-0.842-0.673-2.27-1.145-3.888-1.145-1.339 0-2.541 0.321-3.391 0.811-0.495 0.286-0.855 0.627-1.078 1h6.216c0.045-0.001 0.090 0.006 0.132 0.019s0.080 0.033 0.112 0.058 0.058 0.054 0.075 0.087c0.017 0.033 0.026 0.068 0.026 0.103s-0.009 0.070-0.026 0.103c-0.017 0.033-0.043 0.062-0.075 0.087s-0.070 0.044-0.112 0.058c-0.042 0.013-0.087 0.020-0.132 0.019h-6.428c-0.022 0.104-0.043 0.204-0.043 0.311 0 0.104 0.022 0.21 0.043 0.311h6.428c0.045-0 0.090 0.006 0.132 0.019s0.080 0.033 0.112 0.058 0.058 0.054 0.075 0.087c0.017 0.033 0.026 0.068 0.026 0.103s-0.009 0.070-0.026 0.103c-0.017 0.033-0.043 0.062-0.075 0.087s-0.070 0.044-0.112 0.058c-0.042 0.013-0.087 0.020-0.132 0.019h-6.215c0.223 0.375 0.582 0.715 1.078 1 0.851 0.489 2.052 0.8 3.391 0.8 1.619 0 3.046-0.461 3.888-1.134 0.032-0.025 0.069-0.044 0.111-0.058s0.086-0.020 0.131-0.020 0.089 0.007 0.131 0.020c0.041 0.013 0.079 0.033 0.111 0.058s0.057 0.054 0.074 0.087c0.017 0.032 0.026 0.067 0.026 0.102s-0.009 0.070-0.026 0.102c-0.017 0.032-0.042 0.062-0.074 0.087-0.999 0.798-2.589 1.289-4.371 1.289-1.474 0-2.805-0.346-3.789-0.911-0.663-0.381-1.161-0.869-1.419-1.423h-1.121c-0.090 0.006-0.18-0.017-0.249-0.062s-0.112-0.111-0.12-0.182c-0.008-0.071 0.021-0.141 0.080-0.195s0.142-0.088 0.232-0.094c0.019-0.001 0.038-0.001 0.057 0h0.951c-0.017-0.102-0.028-0.206-0.028-0.311s0.012-0.209 0.028-0.311h-0.951c-0.090 0.006-0.18-0.017-0.249-0.062s-0.112-0.111-0.12-0.182c-0.008-0.071 0.021-0.141 0.080-0.195s0.142-0.088 0.232-0.094c0.019-0.001 0.038-0.001 0.057 0h1.121c0.258-0.557 0.756-1.051 1.419-1.434 0.984-0.567 2.315-0.911 3.789-0.911zM4.555 6.691v2.312c0 1.301 1.425 2.55 3.874 3.479s5.864 1.511 9.635 1.511c3.771 0 7.191-0.583 9.635-1.511s3.86-2.177 3.86-3.479v-2.312c-0.717 0.881-1.974 1.647-3.576 2.256-2.564 0.975-6.063 1.567-9.933 1.567-2.115 0-4.115-0.179-5.917-0.5-1.488-0.265-2.844-0.626-4.002-1.067-1.601-0.609-2.858-1.375-3.576-2.256zM29.898 8.335c0.2-0.033 0.416 0.106 0.412 0.267v2.012c0.003 0.141-0.161 0.267-0.341 0.267s-0.343-0.126-0.341-0.267v-2.012c-0.004-0.123 0.116-0.241 0.27-0.267zM32.24 8.369v0.633c0 1.599-1.677 2.982-4.243 3.957s-6.072 1.567-9.933 1.567c-2.717 0-5.246-0.298-7.407-0.811 0.651 0.702 1.721 1.351 3.136 1.889 2.439 0.928 5.85 1.512 9.621 1.512 3.781 0 7.194-0.583 9.635-1.511s3.86-2.177 3.86-3.479c0-1.302-1.419-2.55-3.86-3.479-0.256-0.097-0.533-0.189-0.809-0.278h-0.001zM8.84 9.691c0.197-0.020 0.393 0.123 0.383 0.278v1.845c0.003 0.141-0.161 0.267-0.341 0.267s-0.343-0.126-0.341-0.267v-1.845c-0.008-0.133 0.129-0.261 0.298-0.278zM26.138 10.036c0.192-0.019 0.384 0.115 0.383 0.267v2.012c0.003 0.141-0.161 0.267-0.341 0.267s-0.343-0.126-0.341-0.267v-2.012c-0.001-0.129 0.134-0.251 0.298-0.267zM14.233 10.881c0.2-0.033 0.416 0.106 0.412 0.267v1.845c0.003 0.141-0.161 0.267-0.341 0.267s-0.343-0.126-0.341-0.267v-1.845c-0.004-0.123 0.116-0.241 0.27-0.267zM20.335 11.003c0.2-0.033 0.416 0.107 0.412 0.267v2.012c0.003 0.141-0.161 0.267-0.341 0.267s-0.343-0.126-0.341-0.267v-2.012c-0.004-0.123 0.116-0.241 0.27-0.267zM6.882 12.403c-1.11 0.238-2.125 0.531-3.008 0.867-2.439 0.928-3.86 2.166-3.86 3.467s1.421 2.551 3.86 3.479c2.439 0.928 5.85 1.511 9.621 1.511 1.831 0 3.575-0.142 5.165-0.389-1.948-0.269-3.71-0.693-5.165-1.245-2.57-0.975-4.257-2.357-4.257-3.957v-2.801c-0.384-0.118-0.756-0.245-1.107-0.378-0.45-0.17-0.858-0.361-1.249-0.556zM9.919 13.826v2.312c0 1.301 1.425 2.55 3.874 3.479s5.864 1.512 9.635 1.512c3.771 0 7.191-0.583 9.635-1.512s3.86-2.177 3.86-3.479v-2.312c-0.717 0.881-1.974 1.647-3.576 2.256-2.564 0.975-6.063 1.567-9.933 1.567-3.861 0-7.358-0.592-9.919-1.567-1.601-0.609-2.858-1.375-3.576-2.256zM35.277 15.46c0.009-0 0.019-0 0.028 0s0.019-0 0.028 0c0.183-0 0.348 0.135 0.341 0.278v2.012c0.003 0.141-0.161 0.267-0.341 0.267s-0.343-0.126-0.341-0.267v-2.012c-0.005-0.12 0.107-0.237 0.255-0.267 0.009-0.004 0.019-0.008 0.028-0.011zM14.176 16.826c0.009-0 0.019-0 0.028 0 0.192-0.013 0.378 0.127 0.369 0.278v1.845c0.003 0.141-0.161 0.267-0.341 0.267s-0.343-0.126-0.341-0.267v-1.845c-0.009-0.13 0.12-0.257 0.284-0.278zM31.474 17.171c0.009-0 0.019-0 0.028 0 0.192-0.019 0.384 0.115 0.383 0.267v2.012c0.003 0.141-0.161 0.267-0.341 0.267s-0.343-0.126-0.341-0.267v-2.012c-0.004-0.123 0.116-0.241 0.27-0.267zM19.64 18.005c0.009-0 0.019-0 0.028 0 0.183-0 0.348 0.135 0.341 0.278v1.845c0.003 0.141-0.161 0.267-0.341 0.267s-0.343-0.126-0.341-0.267v-1.845c-0.004-0.123 0.116-0.241 0.27-0.267 0.014-0.004 0.028-0.008 0.043-0.011zM25.727 18.147c0.009-0 0.019-0 0.028 0 0.183-0 0.348 0.135 0.341 0.278v2.012c0.003 0.141-0.161 0.267-0.341 0.267s-0.343-0.126-0.341-0.267v-2.012c-0.004-0.123 0.116-0.241 0.27-0.267 0.014-0.004 0.028-0.008 0.043-0.011zM0 18.458v2.312c0 1.301 1.425 2.55 3.874 3.479s5.864 1.511 9.635 1.511c3.771 0 7.191-0.583 9.635-1.511 1.971-0.749 3.274-1.709 3.704-2.734-0.361 0.035-0.722 0.065-1.093 0.089v0.778c0.003 0.141-0.161 0.267-0.341 0.267s-0.343-0.126-0.341-0.267v-0.733c-0.54 0.024-1.090 0.033-1.646 0.033-1.001 0-1.98-0.046-2.923-0.122-2.069 0.456-4.455 0.722-7.010 0.722-3.861 0-7.357-0.592-9.919-1.567-1.601-0.609-2.858-1.375-3.576-2.256zM33.702 19.97c-0.115 0.047-0.222 0.099-0.341 0.144-1.604 0.609-3.58 1.074-5.775 1.334-0.4 1.312-1.948 2.444-4.143 3.279-2.566 0.975-6.072 1.567-9.933 1.567h-0.298c2.396 0.825 5.597 1.334 9.124 1.334 3.781 0 7.194-0.583 9.635-1.512s3.86-2.177 3.86-3.479c0-0.953-0.764-1.876-2.129-2.667zM4.3 21.459c0.009-0 0.019-0 0.028 0 0.183-0 0.348 0.135 0.341 0.278v1.856c0.003 0.141-0.161 0.267-0.341 0.267s-0.343-0.126-0.341-0.267v-1.856c-0.004-0.123 0.116-0.241 0.27-0.267 0.014-0.004 0.028-0.008 0.043-0.011zM21.598 21.803c0.009-0 0.019-0 0.028 0 0.183-0 0.348 0.135 0.341 0.278v2.012c0.003 0.141-0.161 0.267-0.341 0.267s-0.343-0.126-0.341-0.267v-2.012c-0.004-0.123 0.116-0.241 0.27-0.267 0.014-0.004 0.028-0.008 0.043-0.011zM9.678 22.648c0.009-0 0.019-0 0.028 0 0.192-0.019 0.384 0.115 0.383 0.267v1.856c0.003 0.141-0.161 0.267-0.341 0.267s-0.343-0.126-0.341-0.267v-1.856c-0.004-0.123 0.116-0.241 0.27-0.267zM15.78 22.77c0.009-0 0.019-0 0.028 0 0.197-0.020 0.393 0.123 0.383 0.278v2.012c0.003 0.141-0.161 0.267-0.341 0.267s-0.343-0.126-0.341-0.267v-2.012c-0.010-0.127 0.111-0.252 0.27-0.278zM35.845 24.337c-0.717 0.881-1.974 1.647-3.576 2.256-2.564 0.975-6.063 1.567-9.933 1.567-3.861 0-7.358-0.592-9.919-1.567-0.293-0.112-0.568-0.234-0.837-0.356-0.949-0.050-1.859-0.137-2.739-0.256v0.667c0 1.301 1.425 2.55 3.874 3.479s5.864 1.511 9.635 1.511c3.771 0 7.191-0.583 9.635-1.511s3.86-2.177 3.86-3.479l-0-2.312zM34.256 25.971c0.183-0 0.348 0.135 0.341 0.278v2.012c0.003 0.141-0.161 0.267-0.341 0.267s-0.343-0.126-0.341-0.267v-2.012c-0.004-0.123 0.116-0.241 0.27-0.267 0.023-0.006 0.047-0.008 0.071-0.011zM13.113 27.338c0.009-0 0.019-0 0.028 0s0.019-0 0.028 0c0.183-0 0.348 0.135 0.341 0.278v1.845c0.003 0.141-0.161 0.267-0.341 0.267s-0.343-0.126-0.341-0.267v-1.845c-0.009-0.13 0.12-0.257 0.284-0.278zM30.396 27.682c0.009-0 0.019-0 0.028 0 0.197-0.020 0.393 0.123 0.383 0.278v2.012c0.003 0.141-0.161 0.267-0.341 0.267s-0.343-0.126-0.341-0.267v-2.012c-0.010-0.127 0.111-0.252 0.27-0.278zM18.59 28.516c0.183-0 0.348 0.135 0.341 0.278v1.845c0.003 0.141-0.161 0.267-0.341 0.267s-0.343-0.126-0.341-0.267v-1.845c-0.004-0.123 0.116-0.241 0.27-0.267 0.023-0.006 0.047-0.008 0.071-0.011zM24.62 28.649c0.009-0 0.019-0 0.028 0 0.192-0.019 0.384 0.115 0.383 0.267v2.012c0.003 0.141-0.161 0.267-0.341 0.267s-0.343-0.126-0.341-0.267v-2.012c-0.004-0.123 0.116-0.241 0.27-0.267z"></path>
</symbol>
<symbol id="icon-fitness" viewBox="0 0 37 32">
<path d="M31.805 4.113c-0.731 0.008-1.704 1.057-2.034 1.504s-0.169 0.861 0.080 1.171c0 0 0.090 0.574 0.538 0.503 0.059 0.49 0.488 0.43 0.488 0.43 0.029 0.872 1.555 0.615 1.99 0.574 1.048 1.74-0.703 3.545 0 6.489-2.078-2.174-4.105 0-4.105 0-3.056-2.283-5.661 0-5.661 0-0.659-0.679-1.414-1.136-2.094-1.443l-0.121-2.025c0 0 0.373-0.941 0.715-2.257 0.404-0.323 0.658-0.476 0.852-1.318 0.282-1.24 0.013-1.683-0.338-1.683 0.087-1.068 0.245-2.362 0.029-3.11-0.591-2.079-2.822-2.949-3.682-2.949-0.677 0-1.732 0.185-1.976 1.142-0.84 0.165-1.503 0.683-1.751 1.805-0.193 0.864 0.011 2.246 0.075 3.112-0.352 0-0.621 0.443-0.338 1.683 0.193 0.842 0.364 0.96 0.851 1.318 0.34 1.316 0.715 2.257 0.715 2.257l-0.12 2.025c-0.682 0.305-1.435 0.762-2.096 1.443 0 0-2.605-2.283-5.66 0 0 0-2.027-2.174-4.107 0 0.703-2.944-1.048-4.747 0-6.489 0.435 0.041 1.96 0.297 1.99-0.574 0 0 0.429 0.060 0.488-0.43 0.448 0.071 0.538-0.503 0.538-0.503 0.249-0.31 0.41-0.724 0.080-1.171s-1.304-1.496-2.034-1.504c-0.728-0.008-2.214 1.359-2.779 2.336-0.535 0.93-2.624 5.043-2.308 11.114 0.028 0.522 0.413 1.047 0.816 1.245 1.687 0.823 2.399 2.221 3.809 2.645 0 0 3.707 1.142 5.109-0.24 0.481 3.982 2.577 6.218 2.92 9.953 0.024 0.261 0.211 0.473 0.429 0.473h10.693c0.218 0 0.405-0.212 0.429-0.473 0.344-3.733 2.44-5.972 2.921-9.953 1.402 1.383 5.109 0.24 5.109 0.24 1.41-0.424 2.122-1.822 3.809-2.645 0.406-0.198 0.791-0.723 0.816-1.245 0.316-6.071-1.772-10.184-2.308-11.114-0.563-0.978-2.049-2.344-2.777-2.336z"></path>
</symbol>
<symbol id="icon-health" viewBox="0 0 37 32">
<path d="M28.879 10.156c2.37 0 4.585 0.811 6.334 2.23 1.127-3.893-0.117-8.354-3.808-10.868-3.653-2.514-8.588-1.784-11.697 1.46l-1.943 2.028-2.098-2.19c-4.041-4.218-10.881-3.69-14.223 1.541-2.409 3.812-1.71 8.962 1.399 12.166l14.067 14.721c0.505 0.527 1.282 0.527 1.788 0l2.526-2.636c-1.749-1.947-2.837-4.583-2.837-7.462 0-6.043 4.702-10.99 10.492-10.99z"></path>
<path d="M28.879 12.751c-4.43 0-8.044 3.731-8.044 8.395s3.575 8.395 8.044 8.395c4.469 0 8.044-3.731 8.044-8.395s-3.575-8.395-8.044-8.395zM32.92 22.078c0 0.243-0.194 0.446-0.427 0.446h-2.332v2.433c0 0.243-0.194 0.446-0.427 0.446h-1.749c-0.233 0-0.427-0.203-0.427-0.446v-2.433h-2.332c-0.233 0-0.427-0.203-0.427-0.446v-1.825c0-0.243 0.194-0.446 0.427-0.446h2.332v-2.433c0-0.243 0.194-0.446 0.427-0.446h1.749c0.233 0 0.427 0.203 0.427 0.446v2.433h2.332c0.233 0 0.427 0.203 0.427 0.446v1.825z"></path>
</symbol>
<symbol id="icon-personal" viewBox="0 0 26 32">
<path d="M5.662 7.927c0-4.371 3.556-7.927 7.927-7.927s7.927 3.556 7.927 7.927c0 4.371-3.556 7.927-7.927 7.927s-7.927-3.556-7.927-7.927zM15.854 18.119h-5.662c-5.619 0-10.192 4.573-10.192 10.192 0 1.873 1.524 3.397 3.397 3.397h19.252c1.873 0 3.397-1.524 3.397-3.397 0-5.619-4.573-10.192-10.192-10.192z"></path>
</symbol>
<symbol id="icon-programming" viewBox="0 0 37 32">
<path d="M29.804 17.906v-0.001c0.012 0.080 0.045 0.155 0.098 0.216s0.121 0.107 0.197 0.132c0.137 0.044 0.275 0.095 0.404 0.148s0.258 0.113 0.386 0.18c0.072 0.037 0.152 0.053 0.233 0.047s0.157-0.035 0.222-0.084l1.753-1.305c0.021-0.017 0.047-0.027 0.073-0.028 0.006 0 0.012 0.003 0.016 0.007l1.324 1.323c0.004 0.005 0.005 0.011 0.005 0.017-0.001 0.027-0.011 0.053-0.028 0.074l-1.293 1.735c-0.053 0.065-0.085 0.144-0.094 0.228s0.007 0.168 0.046 0.242c0.066 0.129 0.126 0.258 0.18 0.386 0.051 0.123 0.098 0.249 0.14 0.378 0.021 0.083 0.066 0.157 0.129 0.215s0.142 0.094 0.227 0.107l2.16 0.316c0.026 0.002 0.051 0.013 0.070 0.031 0.004 0.004 0.007 0.010 0.008 0.016v1.872c-0.001 0.006-0.003 0.012-0.008 0.016-0.019 0.018-0.044 0.028-0.070 0.030l-2.16 0.316c-0.080 0.012-0.155 0.045-0.216 0.098s-0.107 0.121-0.132 0.197c-0.045 0.141-0.095 0.276-0.148 0.404s-0.113 0.257-0.18 0.386c-0.037 0.072-0.053 0.152-0.047 0.233s0.035 0.157 0.084 0.222l1.304 1.751c0.017 0.021 0.027 0.047 0.028 0.073-0 0.006-0.002 0.012-0.006 0.016l-1.324 1.323c-0.004 0.004-0.010 0.006-0.016 0.006-0.027-0.001-0.053-0.011-0.073-0.028l-1.735-1.293c-0.065-0.053-0.144-0.085-0.228-0.094s-0.167 0.007-0.242 0.046c-0.123 0.063-0.245 0.12-0.366 0.172l-0.022 0.008c-0.127 0.053-0.252 0.099-0.377 0.14-0.083 0.021-0.157 0.066-0.214 0.129s-0.094 0.142-0.106 0.227l-0.316 2.16c-0.002 0.026-0.013 0.050-0.030 0.070-0.004 0.004-0.010 0.007-0.016 0.008h-1.872c-0.006-0.001-0.012-0.004-0.016-0.008-0.017-0.019-0.028-0.044-0.030-0.070l-0.316-2.16c-0.012-0.080-0.046-0.155-0.098-0.216s-0.121-0.107-0.198-0.132c-0.132-0.043-0.267-0.092-0.402-0.148h-0.002c-0.129-0.053-0.257-0.113-0.386-0.18-0.072-0.037-0.152-0.053-0.233-0.047s-0.157 0.035-0.222 0.084l-1.751 1.304c-0.021 0.017-0.047 0.027-0.073 0.028-0.006-0-0.012-0.002-0.016-0.006l-1.323-1.323c-0.004-0.004-0.006-0.010-0.006-0.016 0.001-0.027 0.011-0.053 0.028-0.073l1.293-1.735c0.053-0.065 0.085-0.144 0.094-0.228s-0.007-0.168-0.046-0.242c-0.066-0.129-0.126-0.258-0.18-0.386-0.051-0.123-0.098-0.249-0.14-0.378-0.021-0.083-0.066-0.157-0.129-0.214s-0.142-0.094-0.227-0.106l-2.16-0.316c-0.026-0.002-0.051-0.013-0.070-0.030-0.005-0.004-0.007-0.010-0.008-0.016v-1.872c0.001-0.006 0.004-0.012 0.008-0.016 0.019-0.018 0.044-0.029 0.070-0.031l2.16-0.316c0.080-0.012 0.155-0.045 0.216-0.098s0.107-0.121 0.132-0.197c0.044-0.137 0.095-0.275 0.148-0.404s0.113-0.258 0.18-0.386c0.037-0.072 0.053-0.152 0.047-0.233s-0.035-0.157-0.084-0.222l-1.304-1.75c-0.017-0.021-0.027-0.047-0.028-0.074 0-0.006 0.002-0.012 0.006-0.016l1.323-1.323c0.004-0.004 0.010-0.007 0.016-0.007 0.027 0.001 0.053 0.011 0.073 0.028l1.733 1.293c0.065 0.053 0.144 0.085 0.228 0.094s0.168-0.007 0.242-0.046c0.123-0.063 0.245-0.12 0.366-0.172 0.007-0.002 0.014-0.005 0.022-0.008 0.127-0.052 0.252-0.099 0.377-0.14 0.083-0.021 0.157-0.066 0.214-0.13s0.094-0.142 0.106-0.227l0.316-2.16c0.002-0.026 0.013-0.051 0.030-0.070 0.004-0.005 0.010-0.008 0.016-0.008h1.872c0.006 0.001 0.012 0.004 0.016 0.008 0.018 0.019 0.028 0.044 0.030 0.070l0.316 2.16zM3.979 21.481h12.028c0.058 0.002 0.116-0.008 0.17-0.029s0.103-0.053 0.145-0.093c0.042-0.040 0.075-0.089 0.097-0.142s0.034-0.111 0.034-0.169-0.012-0.115-0.034-0.169c-0.023-0.053-0.056-0.102-0.097-0.142s-0.091-0.072-0.145-0.093c-0.054-0.021-0.112-0.031-0.17-0.029h-12.028c-0.058-0.002-0.116 0.008-0.17 0.029s-0.103 0.053-0.145 0.093c-0.042 0.040-0.075 0.089-0.097 0.142s-0.034 0.111-0.034 0.169c0 0.058 0.012 0.115 0.034 0.169s0.056 0.102 0.097 0.142c0.042 0.040 0.091 0.072 0.145 0.093s0.112 0.031 0.17 0.029zM3.979 19.436h12.028c0.058 0.002 0.116-0.008 0.17-0.029s0.103-0.053 0.145-0.093c0.042-0.040 0.075-0.089 0.097-0.142s0.034-0.111 0.034-0.169-0.012-0.115-0.034-0.169c-0.023-0.053-0.056-0.102-0.097-0.142s-0.091-0.072-0.145-0.093c-0.054-0.021-0.112-0.031-0.17-0.029h-12.028c-0.058-0.002-0.116 0.008-0.17 0.029s-0.103 0.053-0.145 0.093c-0.042 0.040-0.075 0.089-0.097 0.142s-0.034 0.111-0.034 0.169c0 0.058 0.012 0.115 0.034 0.169s0.056 0.102 0.097 0.142c0.042 0.040 0.091 0.072 0.145 0.093s0.112 0.031 0.17 0.029zM28.8 3.048c-0.001 0.399-0.16 0.781-0.442 1.063s-0.664 0.441-1.063 0.442h-5.624c-0.395-0.007-0.771-0.168-1.048-0.449s-0.432-0.661-0.432-1.056 0.155-0.774 0.432-1.056c0.277-0.282 0.653-0.443 1.048-0.45h5.625c0.399 0.001 0.781 0.16 1.062 0.442s0.441 0.664 0.442 1.063zM27.935 3.048c-0.001-0.169-0.068-0.332-0.188-0.451s-0.282-0.187-0.451-0.188h-5.624c-0.167 0.004-0.325 0.073-0.442 0.193s-0.182 0.28-0.182 0.446 0.065 0.327 0.182 0.446c0.116 0.119 0.275 0.189 0.442 0.193h5.625c0.169-0.001 0.332-0.068 0.452-0.188s0.187-0.282 0.188-0.452h-0.001zM12.058 1.629c-0.186-0-0.371 0.036-0.543 0.108s-0.329 0.176-0.46 0.308c-0.232 0.232-0.377 0.538-0.409 0.865s0.050 0.655 0.232 0.928c0.182 0.273 0.454 0.474 0.768 0.57s0.652 0.079 0.955-0.047 0.554-0.353 0.709-0.642c0.155-0.29 0.204-0.624 0.14-0.946s-0.238-0.612-0.492-0.82c-0.254-0.208-0.572-0.322-0.901-0.322zM12.45 2.654c0.052 0.051 0.093 0.112 0.121 0.179s0.043 0.139 0.043 0.212c0 0.128-0.044 0.252-0.125 0.352s-0.194 0.167-0.319 0.193c-0.126 0.025-0.256 0.007-0.369-0.053s-0.202-0.157-0.252-0.275c-0.049-0.118-0.056-0.25-0.020-0.373s0.115-0.229 0.221-0.301c0.106-0.072 0.234-0.104 0.361-0.092s0.247 0.068 0.338 0.158zM8.542 1.629c-0.186-0-0.371 0.036-0.543 0.108s-0.329 0.176-0.46 0.308c-0.232 0.232-0.377 0.538-0.409 0.864s0.050 0.654 0.232 0.927 0.454 0.474 0.768 0.57c0.314 0.095 0.652 0.079 0.955-0.047s0.554-0.352 0.709-0.642c0.155-0.289 0.204-0.624 0.141-0.946s-0.238-0.612-0.491-0.82c-0.254-0.208-0.572-0.322-0.9-0.322zM8.934 2.654c0.051 0.051 0.092 0.113 0.12 0.18s0.042 0.139 0.042 0.212c0 0.128-0.044 0.253-0.126 0.352s-0.195 0.167-0.321 0.192c-0.126 0.025-0.257 0.006-0.37-0.055s-0.202-0.158-0.251-0.277c-0.049-0.119-0.055-0.251-0.018-0.373s0.116-0.229 0.223-0.3c0.107-0.071 0.235-0.103 0.363-0.091s0.247 0.069 0.338 0.16zM5.026 1.629c-0.186-0-0.371 0.036-0.543 0.108s-0.329 0.176-0.46 0.308c-0.232 0.232-0.377 0.538-0.409 0.864s0.050 0.654 0.232 0.927c0.182 0.273 0.454 0.474 0.768 0.57s0.652 0.079 0.955-0.047c0.303-0.126 0.554-0.352 0.709-0.642s0.205-0.624 0.141-0.946c-0.064-0.322-0.238-0.612-0.491-0.82s-0.572-0.322-0.9-0.322zM5.417 2.654c-0.091-0.090-0.211-0.146-0.338-0.158s-0.256 0.021-0.362 0.092c-0.106 0.072-0.185 0.178-0.221 0.301s-0.030 0.255 0.020 0.373c0.050 0.118 0.139 0.216 0.252 0.276s0.244 0.079 0.37 0.053c0.126-0.026 0.239-0.094 0.32-0.193s0.125-0.224 0.125-0.352c-0-0.073-0.015-0.145-0.043-0.212s-0.069-0.128-0.121-0.18zM28.505 19.315c-0.513-0.001-1.021 0.1-1.495 0.297s-0.904 0.484-1.267 0.848c-0.639 0.639-1.037 1.48-1.125 2.379s0.138 1.802 0.64 2.553c0.502 0.751 1.249 1.305 2.114 1.568s1.794 0.217 2.629-0.129c0.835-0.346 1.524-0.971 1.95-1.768s0.562-1.717 0.386-2.603c-0.176-0.886-0.655-1.684-1.353-2.257s-1.574-0.887-2.478-0.886zM30.655 21.071c0.497 0.497 0.806 1.152 0.875 1.852s-0.107 1.402-0.498 1.986c-0.391 0.585-0.972 1.016-1.645 1.22s-1.396 0.169-2.045-0.101c-0.65-0.269-1.186-0.755-1.517-1.375s-0.438-1.336-0.3-2.026c0.137-0.69 0.509-1.31 1.053-1.757s1.225-0.69 1.928-0.69c0.399-0 0.795 0.078 1.164 0.231s0.704 0.377 0.986 0.66zM22.065 26.983h-0.001l-0.232 0.313c-0.133 0.176-0.202 0.391-0.197 0.611 0.005 0.227 0.096 0.443 0.256 0.604l1.323 1.323c0.161 0.16 0.377 0.252 0.604 0.256 0.22 0.005 0.435-0.064 0.611-0.197l1.541-1.149c0.068 0.031 0.137 0.061 0.208 0.090 0.069 0.028 0.14 0.056 0.212 0.082l0.278 1.9c0.031 0.219 0.134 0.422 0.294 0.574 0.163 0.157 0.381 0.245 0.608 0.246h1.871c0.227-0 0.444-0.089 0.608-0.246 0.16-0.153 0.264-0.355 0.295-0.574l0.278-1.9c0.072-0.026 0.142-0.054 0.212-0.082l0.022-0.010c0.063-0.027 0.125-0.055 0.185-0.082l1.541 1.149c0.176 0.132 0.391 0.202 0.611 0.197 0.227-0.005 0.443-0.096 0.604-0.256l1.324-1.323c0.16-0.161 0.252-0.377 0.256-0.604 0.005-0.22-0.065-0.435-0.197-0.611l-1.149-1.541c0.031-0.069 0.062-0.138 0.091-0.209 0.027-0.069 0.055-0.14 0.082-0.21l1.901-0.278c0.219-0.030 0.422-0.134 0.574-0.294 0.157-0.163 0.245-0.381 0.246-0.608v-1.872c-0.001-0.227-0.089-0.444-0.246-0.608-0.153-0.16-0.355-0.264-0.574-0.295l-1.901-0.278c-0.026-0.071-0.053-0.139-0.082-0.21s-0.059-0.14-0.091-0.209l1.149-1.541c0.133-0.176 0.202-0.391 0.197-0.611-0.005-0.226-0.097-0.442-0.256-0.602l-1.32-1.323c-0.161-0.16-0.377-0.252-0.604-0.256-0.22-0.005-0.435 0.065-0.611 0.197l-0.172 0.128v-13.187c-0.003-0.925-0.371-1.811-1.026-2.465s-1.541-1.022-2.466-1.024h-25.43c-0.925 0.003-1.811 0.371-2.464 1.025s-1.022 1.54-1.025 2.464v20.007c0.003 0.924 0.372 1.81 1.025 2.463s1.54 1.021 2.464 1.024h18.576zM31.542 17.321l-0.503 0.375c-0.069-0.031-0.138-0.061-0.209-0.091-0.069-0.029-0.139-0.056-0.21-0.082l-0.278-1.901c-0.031-0.219-0.134-0.422-0.295-0.574-0.163-0.157-0.381-0.245-0.608-0.246h-1.871c-0.227 0.001-0.445 0.089-0.608 0.246-0.16 0.153-0.264 0.355-0.294 0.574l-0.278 1.9c-0.072 0.027-0.142 0.055-0.212 0.082-0.007 0.003-0.015 0.006-0.022 0.010-0.063 0.027-0.125 0.055-0.185 0.082l-1.541-1.149c-0.176-0.133-0.391-0.202-0.611-0.197-0.227 0.004-0.443 0.096-0.604 0.256l-1.323 1.323c-0.16 0.161-0.252 0.377-0.256 0.604-0.005 0.22 0.065 0.436 0.197 0.611l1.149 1.541c-0.031 0.069-0.062 0.138-0.091 0.209s-0.057 0.14-0.082 0.21l-1.901 0.278c-0.219 0.031-0.421 0.135-0.574 0.295-0.157 0.163-0.245 0.381-0.246 0.608v1.872c0.001 0.227 0.089 0.445 0.246 0.608 0.153 0.16 0.355 0.264 0.574 0.294l1.9 0.278c0.027 0.071 0.055 0.141 0.082 0.21 0.029 0.071 0.059 0.14 0.091 0.209l-0.27 0.363h-19.221c-0.696-0.002-1.363-0.279-1.855-0.771s-0.769-1.159-0.771-1.855v-17.396h30.679v11.225h-0.001zM6.7 9.747c0.040-0.043 0.087-0.077 0.14-0.101s0.11-0.037 0.169-0.038c0.058-0.001 0.116 0.009 0.17 0.031s0.103 0.054 0.144 0.095c0.041 0.041 0.074 0.090 0.096 0.144s0.033 0.112 0.032 0.17c-0.001 0.058-0.014 0.116-0.037 0.169s-0.058 0.101-0.1 0.141l-2.579 2.579 2.579 2.579c0.040 0.040 0.072 0.088 0.094 0.14s0.033 0.109 0.033 0.166c0 0.057-0.011 0.113-0.033 0.166s-0.054 0.1-0.094 0.14c-0.040 0.040-0.088 0.072-0.14 0.094s-0.109 0.033-0.166 0.033c-0.057 0-0.113-0.011-0.166-0.033s-0.1-0.054-0.14-0.094l-2.885-2.885c-0.040-0.040-0.072-0.088-0.094-0.14s-0.033-0.109-0.033-0.166c0-0.057 0.011-0.113 0.033-0.166s0.054-0.1 0.094-0.14l2.885-2.884zM12.673 10.358v0.001c-0.040-0.040-0.072-0.088-0.094-0.14s-0.033-0.109-0.033-0.166c0-0.057 0.011-0.113 0.033-0.166s0.054-0.1 0.094-0.14c0.040-0.040 0.088-0.072 0.14-0.094s0.109-0.033 0.166-0.033c0.057 0 0.113 0.011 0.166 0.033s0.1 0.054 0.14 0.094l2.885 2.884c0.081 0.081 0.126 0.191 0.126 0.306s-0.045 0.225-0.126 0.306l-2.885 2.885c-0.040 0.040-0.088 0.072-0.14 0.094s-0.109 0.033-0.166 0.033c-0.057 0-0.113-0.011-0.166-0.033s-0.1-0.054-0.14-0.094c-0.040-0.040-0.072-0.088-0.094-0.14s-0.033-0.109-0.033-0.166c0-0.057 0.011-0.113 0.033-0.166s0.054-0.1 0.094-0.14l2.579-2.579-2.579-2.579zM10.4 9.747c0.013-0.057 0.037-0.11 0.071-0.158s0.077-0.087 0.127-0.117c0.050-0.030 0.105-0.050 0.163-0.058s0.116-0.005 0.173 0.010c0.056 0.015 0.109 0.041 0.155 0.077s0.084 0.080 0.112 0.131c0.028 0.051 0.046 0.107 0.052 0.165s0 0.116-0.017 0.172l-1.651 6.16c-0.030 0.111-0.102 0.205-0.201 0.262s-0.217 0.073-0.328 0.043-0.205-0.102-0.262-0.201c-0.057-0.099-0.073-0.217-0.043-0.328l1.65-6.158zM31.543 5.234l-30.679-0.004v-1.742c0.002-0.696 0.279-1.362 0.771-1.854s1.159-0.769 1.854-0.771h25.428c0.696 0.002 1.362 0.279 1.854 0.771s0.769 1.159 0.771 1.854v1.745z"></path>
</symbol>
<symbol id="icon-work" viewBox="0 0 37 32">
<path d="M3.071 31.244l4.35 0.393 11.040 0.003v-1.131h-9.761l-0.064-0.304 2.764 0.012-0.247-2.199-2.925-0.057-1.215-8.932h11.448v-1.131h-12.87l1.519 11.172 0.305 1.432-3.986-0.343c-0.981-0.337-1.613-0.847-1.93-1.559-0.867-1.945 0.782-4.938 1.668-6.545 0.243-0.442 0.419-0.761 0.512-0.994 0.175-0.439 0.292-0.973 0.416-1.538 0.27-1.232 0.577-2.629 1.529-3.313 1.046-0.751 6.094-1.43 9.143-1.694 1.12 0.488 2.37 0.77 3.696 0.77s2.577-0.282 3.696-0.77c3.049 0.265 8.096 0.943 9.142 1.694 0.952 0.684 1.258 2.081 1.529 3.313 0.124 0.565 0.241 1.099 0.416 1.539 0.093 0.234 0.269 0.552 0.512 0.994 0.885 1.608 2.534 4.6 1.668 6.545-0.317 0.712-0.949 1.222-1.93 1.559l-3.988 0.343 0.3-1.432 1.526-11.172h-12.871v1.131h11.448l-1.214 8.932-2.925 0.057-0.247 2.199 2.764-0.012-0.064 0.304h-9.761v1.131h11.011l4.224-0.364 0.156-0.032c1.36-0.446 2.282-1.195 2.74-2.225 1.075-2.414-0.735-5.701-1.708-7.467-0.207-0.377-0.386-0.702-0.455-0.873-0.143-0.36-0.251-0.854-0.366-1.377-0.297-1.352-0.666-3.035-1.977-3.977-1.268-0.911-5.695-1.507-8.228-1.781 1.898-1.403 3.111-3.527 3.111-5.902 0-4.214-3.817-7.642-8.508-7.642s-8.508 3.428-8.508 7.642c0 2.375 1.213 4.5 3.111 5.902-2.533 0.275-6.96 0.87-8.228 1.781-1.311 0.942-1.681 2.625-1.977 3.977-0.115 0.523-0.223 1.017-0.366 1.377-0.068 0.172-0.248 0.497-0.455 0.874-0.973 1.766-2.783 5.053-1.708 7.467 0.458 1.030 1.381 1.779 2.74 2.225zM11.212 7.642c0-3.59 3.252-6.511 7.25-6.511s7.249 2.921 7.249 6.511c0 3.59-3.252 6.511-7.249 6.511s-7.25-2.92-7.25-6.511z"></path>
</symbol>
</defs>
</svg>
